<?xml version="1.0" encoding="UTF-8"?>
<svg id="Layer_2" data-name="Layer 2" xmlns="http://www.w3.org/2000/svg" xmlns:xlink="http://www.w3.org/1999/xlink" viewBox="0 0 812 812">
  <defs>
    <style>
      .cls-1 {
        fill: url(#linear-gradient-2);
      }

      .cls-2 {
        fill: url(#linear-gradient);
      }
    </style>
    <linearGradient id="linear-gradient" x1="406" y1="0" x2="406" y2="812" gradientUnits="userSpaceOnUse">
      <stop offset="0" stop-color="#fed135"/>
      <stop offset="1" stop-color="#fd3f10"/>
    </linearGradient>
    <linearGradient id="linear-gradient-2" x1="406" y1="221.95" x2="406" y2="590.05" xlink:href="#linear-gradient"/>
  </defs>
  <g id="Layer_1-2" data-name="Layer 1">
    <g>
      <path class="cls-2" d="m406,0h0C181.77,0,0,181.77,0,406h0c0,224.23,181.77,406,406,406h0c224.23,0,406-181.77,406-406h0C812,181.77,630.23,0,406,0Zm256,585.2c0,42.42-34.38,76.8-76.8,76.8H226.8c-42.42,0-76.8-34.38-76.8-76.8V226.8c0-42.42,34.38-76.8,76.8-76.8h358.4c42.42,0,76.8,34.38,76.8,76.8v358.4Z"/>
      <path class="cls-1" d="m273.25,553.25l132.55,36.8,132.91-36.85,29.57-331.25H243.72l29.53,331.3Zm132.75-266.42h101.88l-.97,10.9-9.98,111.98h0l-6.91,77.25-.62,6.86-83.15,23.04h0s-.2.07-.2.07l-83.23-23.11-5.69-63.8h40.79l2.89,32.41,45.25,12.23h.04v-.03l45.32-12.23,4.74-52.69h-94.84l-.82-9.14-1.84-20.6-.97-10.9h102.08l3.71-41.61h-155.48l-.81-9.14-1.85-20.6-.97-10.9h101.65Z"/>
    </g>
  </g>
</svg>