<?xml version="1.0" encoding="UTF-8"?>
<svg id="Layer_2" data-name="Layer 2" xmlns="http://www.w3.org/2000/svg" viewBox="0 0 32 24">
  <defs>
    <style>
      .cls-1 {
        fill: #0b0952;
      }
    </style>
  </defs>
  <g id="Layer_1-2" data-name="Layer 1">
    <g>
      <path class="cls-1" d="m12.25,17.87V6.13l9.51,5.87-9.51,5.87Z"/>
      <path class="cls-1" d="m30,0H2C1.47,0,.96.21.59.59c-.38.38-.59.88-.59,1.41v20c0,.53.21,1.04.59,1.41.38.38.88.59,1.41.59h28c.53,0,1.04-.21,1.41-.59.38-.38.59-.88.59-1.41V2c0-.53-.21-1.04-.59-1.41-.38-.38-.88-.59-1.41-.59Zm0,22H2V2h28v20Z"/>
    </g>
  </g>
</svg>