<svg width="50" height="50" viewBox="0 0 50 50" fill="none" xmlns="http://www.w3.org/2000/svg">
<g clip-path="url(#clip0_9_183)">
<path d="M37.2576 15H12.7424C10.6814 15 9 16.3018 9 17.8976V32.0971C9 33.6929 10.6814 34.9948 12.7424 34.9948H37.2576C39.3186 34.9948 41 33.6929 41 32.0971V17.8976C41 16.3018 39.3186 15 37.2576 15ZM34.7695 17.8294L25.0203 23.2467L15.5559 17.8294H34.7695ZM37.2576 32.1654H12.7424C12.6949 32.1654 12.6542 32.1339 12.6542 32.0971V19.6929L24.9797 26.748L37.339 19.8819V32.0971C37.339 32.1339 37.2983 32.1654 37.2508 32.1654H37.2576Z" fill="white"/>
</g>
<path d="M49 25V49H25C11.7452 49 1 38.2548 1 25C1 11.7452 11.7452 1 25 1C38.2548 1 49 11.7452 49 25Z" stroke="white" stroke-width="2"/>
<defs>
<clipPath id="clip0_9_183">
<rect width="32" height="20" fill="white" transform="translate(9 15)"/>
</clipPath>
</defs>
</svg>
