<?xml version="1.0" encoding="UTF-8"?>
<svg id="Layer_2" data-name="Layer 2" xmlns="http://www.w3.org/2000/svg" xmlns:xlink="http://www.w3.org/1999/xlink" viewBox="0 0 812 812">
  <defs>
    <style>
      .cls-1 {
        fill: url(#linear-gradient-2);
      }

      .cls-2 {
        fill: url(#linear-gradient-3);
      }

      .cls-3 {
        fill: url(#linear-gradient);
      }
    </style>
    <linearGradient id="linear-gradient" x1="406" y1="0" x2="406" y2="812" gradientUnits="userSpaceOnUse">
      <stop offset="0" stop-color="#fed135"/>
      <stop offset="1" stop-color="#fd3f10"/>
    </linearGradient>
    <linearGradient id="linear-gradient-2" x1="515.32" y1="282.26" x2="515.32" y2="529.74" xlink:href="#linear-gradient"/>
    <linearGradient id="linear-gradient-3" x1="298.66" y1="275" x2="298.66" y2="537" xlink:href="#linear-gradient"/>
  </defs>
  <g id="Layer_1-2" data-name="Layer 1">
    <g>
      <path class="cls-3" d="m406,0h0C181.77,0,0,181.77,0,406h0c0,224.23,181.77,406,406,406h0c224.23,0,406-181.77,406-406h0C812,181.77,630.23,0,406,0Zm256,585.2c0,42.42-34.38,76.8-76.8,76.8H226.8c-42.42,0-76.8-34.38-76.8-76.8V226.8c0-42.42,34.38-76.8,76.8-76.8h358.4c42.42,0,76.8,34.38,76.8,76.8v358.4Z"/>
      <path class="cls-1" d="m619.87,282.26h-11.89c-8.46,0-16.43,3.95-21.55,10.69l-71.12,93.57-71.13-93.58c-5.12-6.73-13.09-10.68-21.55-10.68h-11.89l91.91,120.92-96.19,126.56h11.89c8.46,0,16.43-3.95,21.55-10.69l75.42-99.22,75.42,99.22c5.12,6.73,13.09,10.69,21.55,10.69h11.89l-96.22-126.56,91.91-120.92Z"/>
      <path class="cls-2" d="m380.24,465.59c-17.52,36.23-58.33,59.07-103.06,48.79-41.23-9.48-69.21-48.12-69.21-90.42v-7.89h201.53v-30.23c0-67.26-59.91-120.53-129.27-109.35-54,8.7-92.41,57.53-92.41,112.21v28.8c0,66.03,48.14,118.76,109.51,119.49,51.31.6,94.61-33.7,107.89-80.6h-10.36c-6.25,0-11.91,3.58-14.62,9.2Zm-172.27-72.59c0-47.44,28.25-86.23,69.77-95.51,59.19-13.22,111.61,31.44,111.61,88.35v10.08h-181.38v-2.92Z"/>
    </g>
  </g>
</svg>