<?xml version="1.0" encoding="UTF-8"?>
<svg id="Layer_2" data-name="Layer 2" xmlns="http://www.w3.org/2000/svg" xmlns:xlink="http://www.w3.org/1999/xlink" viewBox="0 0 812 812">
  <defs>
    <style>
      .cls-1 {
        fill: url(#linear-gradient-2);
      }

      .cls-2 {
        fill: url(#linear-gradient);
      }
    </style>
    <linearGradient id="linear-gradient" x1="406" y1="0" x2="406" y2="812" gradientUnits="userSpaceOnUse">
      <stop offset="0" stop-color="#fed135"/>
      <stop offset="1" stop-color="#fd3f10"/>
    </linearGradient>
    <linearGradient id="linear-gradient-2" y1="213.93" x2="406" y2="598.07" xlink:href="#linear-gradient"/>
  </defs>
  <g id="Layer_1-2" data-name="Layer 1">
    <g>
      <path class="cls-2" d="m406,0h0C181.77,0,0,181.77,0,406h0c0,224.23,181.77,406,406,406h0c224.23,0,406-181.77,406-406h0C812,181.77,630.23,0,406,0Zm256,585.2c0,42.42-34.38,76.8-76.8,76.8H226.8c-42.42,0-76.8-34.38-76.8-76.8V226.8c0-42.42,34.38-76.8,76.8-76.8h358.4c42.42,0,76.8,34.38,76.8,76.8v358.4Z"/>
      <path class="cls-1" d="m590.8,388.9l-167.8-167.7c-9.63-9.66-25.27-9.7-34.93-.07-.02.02-.05.05-.07.07l-34.8,34.9,44.2,44.1c15.38-5.21,32.07,3.04,37.28,18.42,2.1,6.19,2.07,12.91-.08,19.08l42.5,42.5c15.35-5.29,32.09,2.86,37.38,18.21,5.29,15.35-2.86,32.09-18.21,37.38-15.35,5.29-32.09-2.86-37.38-18.21-2.33-6.77-2.12-14.16.61-20.78l-39.7-39.7v104.5c14.54,7.23,20.46,24.88,13.23,39.42s-24.88,20.46-39.42,13.23-20.46-24.88-13.23-39.42c3.19-6.4,8.6-11.43,15.22-14.13v-105.4c-15.03-6.14-22.25-23.3-16.11-38.33.04-.09.07-.18.11-.27l-43.5-43.5-115,115c-9.63,9.64-9.63,25.26,0,34.9l167.9,167.7c9.63,9.66,25.27,9.7,34.93.07.02-.02.05-.05.07-.07l166.9-167c9.63-9.64,9.63-25.26,0-34.9h-.1Z"/>
    </g>
  </g>
</svg>