<svg width="50" height="50" viewBox="0 0 50 50" fill="none" xmlns="http://www.w3.org/2000/svg">
<path d="M49 25V49H25C11.7452 49 1 38.2548 1 25C1 11.7452 11.7452 1 25 1C38.2548 1 49 11.7452 49 25Z" stroke="white" stroke-width="2"/>
<path d="M30.1887 35.1411C30.1887 33.6282 30.1887 32.1398 30.1887 30.6514C30.1887 30.0571 30.1101 29.4774 29.8989 28.9224C29.7417 28.5048 29.5207 28.1364 29.1621 27.8024C29.6779 27.709 30.1593 27.6354 30.6407 27.5371C31.3677 27.3898 32.0652 27.1589 32.7283 26.8249C34.0006 26.1863 34.9535 25.2333 35.4742 23.9021C36.2012 22.0503 36.383 20.1493 35.8279 18.2139C35.6216 17.4869 35.2483 16.8336 34.757 16.2588C34.6441 16.1311 34.6293 16.028 34.6834 15.8609C35.096 14.6034 34.9142 13.3803 34.4623 12.1719C34.4083 12.0246 34.3051 12.0147 34.1823 12.0098C33.6223 12 33.0967 12.1474 32.581 12.3389C31.8196 12.6189 31.1073 13.0021 30.4245 13.4343C30.2723 13.5326 30.1445 13.5621 29.9579 13.5129C27.8555 12.9628 25.7236 12.953 23.6065 13.3705C22.8598 13.5179 22.2556 13.4835 21.6023 13.0463C20.8115 12.5305 19.9224 12.1817 18.9645 12.0442C18.8073 12.0196 18.6894 12.0049 18.5961 12L18.3063 12.1032C18.2326 12.1916 18.1835 12.3389 18.1049 12.5796C17.7561 13.6947 17.7364 14.8196 18.041 15.9445C18.0852 16.1115 18.0656 16.2195 17.9526 16.3473C17.0242 17.4427 16.5919 18.7198 16.5723 20.1443C16.5575 21.279 16.6656 22.399 17.0242 23.4797C17.7414 25.641 19.2985 26.8789 21.4353 27.4733C22.1083 27.6599 22.791 27.7827 23.5426 27.8662C23.3363 28.0922 23.1545 28.2887 23.0219 28.5196C22.8156 28.8781 22.6879 29.2662 22.6388 29.6739C22.6191 29.8409 22.5504 29.9146 22.4079 29.9736C20.6494 30.6907 19.0971 30.1946 18.0754 28.5981C17.594 27.8417 16.9358 27.3259 16.0418 27.1442C15.7618 27.0901 15.4867 27.0803 15.2165 27.1785C14.9807 27.267 14.9365 27.4143 15.0888 27.6157C15.1969 27.7631 15.3344 27.881 15.4916 27.9743C16.3758 28.5146 16.9309 29.3202 17.3189 30.2437C17.9182 31.6633 19.0185 32.3265 20.4971 32.4444C21.1651 32.4984 21.8332 32.4296 22.5012 32.2773C22.5012 33.2008 22.4865 34.2226 22.4865 35.1313C22.4865 35.1313 22.5307 38 26.3081 38C30.0856 38 30.1887 35.1313 30.1887 35.1313V35.1411Z" fill="white"/>
</svg>
