<?xml version="1.0" encoding="UTF-8"?>
<svg id="Layer_2" data-name="Layer 2" xmlns="http://www.w3.org/2000/svg" xmlns:xlink="http://www.w3.org/1999/xlink" viewBox="0 0 812 812">
  <defs>
    <style>
      .cls-1 {
        fill: url(#linear-gradient-2);
      }

      .cls-2 {
        fill: url(#linear-gradient-3);
      }

      .cls-3 {
        fill: url(#linear-gradient);
      }

      .cls-4 {
        fill: url(#linear-gradient-4);
      }
    </style>
    <linearGradient id="linear-gradient" x1="406" y1="0" x2="406" y2="812" gradientUnits="userSpaceOnUse">
      <stop offset="0" stop-color="#fed135"/>
      <stop offset="1" stop-color="#fd3f10"/>
    </linearGradient>
    <linearGradient id="linear-gradient-2" x1="406" y1="365" x2="406" y2="585" xlink:href="#linear-gradient"/>
    <linearGradient id="linear-gradient-3" x1="308.62" y1="226.75" x2="308.62" y2="585" xlink:href="#linear-gradient"/>
    <linearGradient id="linear-gradient-4" x1="503.38" y1="226.75" x2="503.38" y2="585" xlink:href="#linear-gradient"/>
  </defs>
  <g id="Layer_1-2" data-name="Layer 1">
    <g>
      <path class="cls-3" d="m406,0h0C181.77,0,0,181.77,0,406h0c0,224.23,181.77,406,406,406h0c224.23,0,406-181.77,406-406h0C812,181.77,630.23,0,406,0Zm256,585.2c0,42.42-34.38,76.8-76.8,76.8H226.8c-42.42,0-76.8-34.38-76.8-76.8V226.8c0-42.42,34.38-76.8,76.8-76.8h358.4c42.42,0,76.8,34.38,76.8,76.8v358.4Z"/>
      <polygon class="cls-1" points="334.4 365 406 585 477.6 365 334.4 365"/>
      <path class="cls-2" d="m291,232c-2-7-12-7-14,0l-43,133-22,67c-2,6,0,13,6,16l188,137-115-353Z"/>
      <path class="cls-4" d="m578,365l-43-133c-2-7-12-7-14,0l-115,353,188-137c6-3,8-10,6-16l-22-67Z"/>
    </g>
  </g>
</svg>