<?xml version="1.0" encoding="UTF-8"?>
<svg id="Layer_2" data-name="Layer 2" xmlns="http://www.w3.org/2000/svg" xmlns:xlink="http://www.w3.org/1999/xlink" viewBox="0 0 812 812">
  <defs>
    <style>
      .cls-1 {
        fill: url(#linear-gradient-2);
      }

      .cls-2 {
        fill: url(#linear-gradient);
      }
    </style>
    <linearGradient id="linear-gradient" x1="406" y1="0" x2="406" y2="812" gradientUnits="userSpaceOnUse">
      <stop offset="0" stop-color="#fed135"/>
      <stop offset="1" stop-color="#fd3f10"/>
    </linearGradient>
    <linearGradient id="linear-gradient-2" x1="406" y1="224.85" x2="406" y2="587.15" xlink:href="#linear-gradient"/>
  </defs>
  <g id="Layer_1-2" data-name="Layer 1">
    <g>
      <path class="cls-2" d="m406,0h0C181.77,0,0,181.77,0,406h0c0,224.23,181.77,406,406,406h0c224.23,0,406-181.77,406-406h0C812,181.77,630.23,0,406,0Zm256,585.2c0,42.42-34.38,76.8-76.8,76.8H226.8c-42.42,0-76.8-34.38-76.8-76.8V226.8c0-42.42,34.38-76.8,76.8-76.8h358.4c42.42,0,76.8,34.38,76.8,76.8v358.4Z"/>
      <path class="cls-1" d="m275.44,550.36l130.2,36.8,130.91-36.8,29.01-325.51H246.43l29.01,325.51Zm130.2-258.99h100.48l-3.54,39.63h-152.85l3.54,41.04h145.77l-11.32,123.13-82.09,22.64-82.09-22.64-4.95-62.98h39.63l2.83,31.84,44.58,12.03,44.58-12.03,4.95-51.66h-138.7l-10.61-121.01h99.78Z"/>
    </g>
  </g>
</svg>