<?xml version="1.0" encoding="UTF-8"?>
<svg id="Layer_2" data-name="Layer 2" xmlns="http://www.w3.org/2000/svg" xmlns:xlink="http://www.w3.org/1999/xlink" viewBox="0 0 812 812">
  <defs>
    <style>
      .cls-1 {
        fill: url(#linear-gradient-2);
      }

      .cls-2 {
        fill: url(#linear-gradient-3);
      }

      .cls-3 {
        fill: url(#linear-gradient);
      }

      .cls-4 {
        fill: url(#linear-gradient-4);
      }
    </style>
    <linearGradient id="linear-gradient" x1="406" y1="0" x2="406" y2="812" gradientUnits="userSpaceOnUse">
      <stop offset="0" stop-color="#fed135"/>
      <stop offset="1" stop-color="#fd3f10"/>
    </linearGradient>
    <linearGradient id="linear-gradient-2" x1="364.22" y1="284.42" x2="364.22" y2="547.66" xlink:href="#linear-gradient"/>
    <linearGradient id="linear-gradient-3" x1="537.37" y1="264.34" x2="537.37" y2="327.07" xlink:href="#linear-gradient"/>
    <linearGradient id="linear-gradient-4" x1="536.98" y1="347.93" x2="536.98" y2="547.64" xlink:href="#linear-gradient"/>
  </defs>
  <g id="Layer_1-2" data-name="Layer 1">
    <g>
      <path class="cls-3" d="m406,0h0C181.77,0,0,181.77,0,406h0c0,224.23,181.77,406,406,406h0c224.23,0,406-181.77,406-406h0C812,181.77,630.23,0,406,0Zm256,476.71c0,64.86,0,97.29-12.62,122.06-11.1,21.79-28.82,39.51-50.61,50.61-24.77,12.62-57.2,12.62-122.06,12.62h-141.41c-64.86,0-97.29,0-122.06-12.62-21.79-11.1-39.51-28.82-50.61-50.61-12.62-24.77-12.62-57.2-12.62-122.06v-141.41c0-64.86,0-97.29,12.62-122.06,11.1-21.79,28.82-39.51,50.61-50.61,24.77-12.62,57.2-12.62,122.06-12.62h141.41c64.86,0,97.29,0,122.06,12.62,21.79,11.1,39.51,28.82,50.61,50.61,12.62,24.77,12.62,57.2,12.62,122.06v141.41Z"/>
      <path class="cls-1" d="m394.96,286.45c-.26-1.34-1.31-2.01-3.13-2.01h-62.29c-1.55-.23-2.97,1.2-2.74,2.81-.02,5.46-.54,10.91-1.57,16.27-.78,3.08-1.57,5.83-2.35,8.24l-78.36,231.45c-.79,2.95.13,4.42,2.74,4.42h45.84c2.18.11,4.19-1.44,4.7-3.61l18.41-58.67h90.5l19.98,59.47c.43,1.79,2.13,3.02,3.92,2.81h50.93c2.35,0,3.13-1.34,2.35-4.02l-88.94-257.17Zm-64.64,148.27c9.96-34.05,20.91-68.99,30.95-104.07,9.3,35.02,20.78,69.32,30.95,104.07h-61.9Z"/>
      <path class="cls-2" d="m565.88,283.32c-1.38-3.83-3.48-7.34-6.18-10.33-5.35-5.76-12.73-8.64-22.14-8.64-4-.11-7.98.6-11.71,2.09-3.73,1.48-7.14,3.71-10.03,6.55-2.92,2.87-5.21,6.34-6.73,10.19-1.52,3.84-2.23,7.97-2.09,12.12-.17,4.19.47,8.36,1.89,12.29,1.41,3.93,3.57,7.54,6.34,10.61,2.78,2.95,6.14,5.26,9.85,6.78,3.71,1.52,7.7,2.23,11.69,2.06,4.15.2,8.29-.48,12.17-2,3.88-1.52,7.4-3.85,10.36-6.84,2.83-3.05,5.03-6.64,6.48-10.57,1.45-3.93,2.11-8.13,1.94-12.33.16-4.08-.47-8.15-1.85-11.97Z"/>
      <path class="cls-4" d="m561.07,347.93h-48.19c-2.09,0-3.13,1.21-3.13,3.62v192.07c0,2.68,1.18,4.02,3.53,4.02h47.8c2.09,0,3.13-1.34,3.13-4.02v-192.07c0-2.41-1.05-3.62-3.13-3.62Z"/>
    </g>
  </g>
</svg>