<?xml version="1.0" encoding="UTF-8"?>
<svg id="Layer_2" data-name="Layer 2" xmlns="http://www.w3.org/2000/svg" xmlns:xlink="http://www.w3.org/1999/xlink" viewBox="0 0 812 812">
  <defs>
    <style>
      .cls-1 {
        fill: url(#linear-gradient-2);
      }

      .cls-2 {
        fill: url(#linear-gradient-3);
      }

      .cls-3 {
        fill: url(#linear-gradient);
      }
    </style>
    <linearGradient id="linear-gradient" x1="406" y1="0" x2="406" y2="812" gradientUnits="userSpaceOnUse">
      <stop offset="0" stop-color="#fed135"/>
      <stop offset="1" stop-color="#fd3f10"/>
    </linearGradient>
    <linearGradient id="linear-gradient-2" x1="372.5" y1="598" x2="372.5" y2="214" xlink:href="#linear-gradient"/>
    <linearGradient id="linear-gradient-3" x1="439.5" y1="214" x2="439.5" y2="598" xlink:href="#linear-gradient"/>
  </defs>
  <g id="Layer_1-2" data-name="Layer 1">
    <g>
      <path class="cls-3" d="m406,0h0C181.77,0,0,181.77,0,406h0c0,224.23,181.77,406,406,406h0c224.23,0,406-181.77,406-406h0C812,181.77,630.23,0,406,0Zm256,585.2c0,42.42-34.38,76.8-76.8,76.8H226.8c-42.42,0-76.8-34.38-76.8-76.8V226.8c0-42.42,34.38-76.8,76.8-76.8h358.4c42.42,0,76.8,34.38,76.8,76.8v358.4Z"/>
      <path class="cls-1" d="m312.08,543.43c-15.76-21.88-27.84-52.15-30.51-93.77-.01-.18-.02-.37-.03-.56-.1-1.65-.2-3.3-.27-4.98-.03-.79-.05-1.59-.08-2.39-.04-1.17-.09-2.32-.11-3.51-.05-2.05-.07-4.12-.07-6.22,0-92,74-139,125-119,0,0,56,21,56,93s-56,93-56,93c52,20,125-30,125-119,0-2.1-.03-4.17-.07-6.22-.03-1.18-.07-2.34-.11-3.51-.03-.79-.05-1.59-.08-2.38-.07-1.68-.16-3.34-.27-4.98-.01-.19-.02-.38-.03-.56-2.68-40.81-14.62-71.35-30.51-93.77-32.42-45.02-80.39-54.58-93.92-54.58-99,0-192,81-192,192,0,123,102,192,192,192-23.33,0-65.12-13.96-93.92-54.57Z"/>
      <path class="cls-2" d="m406,214c23.33,0,65.12,13.96,93.92,54.58,15.76,21.88,27.84,52.15,30.51,93.77.01.19.02.38.03.56.1,1.65.2,3.3.27,4.98.03.79.05,1.59.08,2.38.04,1.17.09,2.32.11,3.51.05,2.05.07,4.12.07,6.22,0,92-74,139-125,119,0,0-56-21-56-93s56-93,56-93c-52-20-125,30-125,119,0,2.1.03,4.17.07,6.22.03,1.18.07,2.34.11,3.51.03.8.05,1.6.08,2.39.07,1.68.17,3.34.27,4.98.01.18.02.37.03.56,2.68,40.81,14.62,71.35,30.51,93.77,32.42,45.02,80.39,54.57,93.92,54.57,99,0,192-81,192-192,0-123-102-192-192-192Z"/>
    </g>
  </g>
</svg>