<?xml version="1.0" encoding="UTF-8"?>
<svg id="Layer_2" data-name="Layer 2" xmlns="http://www.w3.org/2000/svg" xmlns:xlink="http://www.w3.org/1999/xlink" viewBox="0 0 812 812">
  <defs>
    <style>
      .cls-1 {
        fill: url(#linear-gradient-2);
      }

      .cls-2 {
        fill: url(#linear-gradient);
      }
    </style>
    <linearGradient id="linear-gradient" x1="406" y1="0" x2="406" y2="812" gradientUnits="userSpaceOnUse">
      <stop offset="0" stop-color="#fed135"/>
      <stop offset="1" stop-color="#fd3f10"/>
    </linearGradient>
    <linearGradient id="linear-gradient-2" x1="406" y1="200.93" x2="406" y2="611.07" xlink:href="#linear-gradient"/>
  </defs>
  <g id="Layer_1-2" data-name="Layer 1">
    <g>
      <path class="cls-2" d="m406,0h0C181.77,0,0,181.77,0,406h0c0,224.23,181.77,406,406,406h0c224.23,0,406-181.77,406-406h0C812,181.77,630.23,0,406,0Zm256,585.2c0,42.42-34.38,76.8-76.8,76.8H226.8c-42.42,0-76.8-34.38-76.8-76.8V226.8c0-42.42,34.38-76.8,76.8-76.8h358.4c42.42,0,76.8,34.38,76.8,76.8v358.4Z"/>
      <path class="cls-1" d="m608.79,428.47h0s-50.48-24.39-50.48-24.39l47.82-22.37c3.71-1.74,5.89-6.33,3.32-10.61l-4.97-5.75c-3.21-3.51-6.69-6.07-10.92-4.4l-35.53,13.39c-.78.29-1.63.33-2.42.1l-13.75-3.9c-1.02-.29-2.12-.02-2.89.71l-14.71,13.97c-3.3-18.9-10.98-36.3-22.01-51.06l21.51-.17c.93,0,1.78-.51,2.22-1.33l7.61-13.81c.4-.72,1.02-1.28,1.78-1.61l35.2-15.01c2.16-.92,3.49-5.41,3.08-8.32l-1.15-10.51c-.94-3.02-5.17-5.67-7.2-4.93l-52.94,18.45,18-49.63c1.39-3.85-.31-8.64-5.15-9.85l-7.58-.55c-4.75-.21-9.02.44-10.84,4.61l-15.65,34.59c-.34.75-.92,1.38-1.64,1.79l-12.48,6.97c-.93.52-1.51,1.48-1.54,2.54l-.53,20.29c-15.06-10.58-32.64-17.79-51.68-20.53l15.1-15.34c.65-.66.89-1.62.64-2.51l-4.38-15.15c-.23-.79-.19-1.63.12-2.39l14.28-35.5c.88-2.18-1.36-6.3-3.71-8.06l-8.24-6.62c-2.8-1.47-7.67-.35-8.58,1.61l-24.39,50.49-22.37-47.82c-1.74-3.71-6.33-5.89-10.61-3.32l-5.75,4.97c-3.51,3.21-6.07,6.69-4.4,10.92l13.39,35.53c.29.78.33,1.63.1,2.42l-3.89,13.76c-.29,1.02-.02,2.11.71,2.88l13.96,14.71c-18.9,3.3-36.3,10.98-51.06,22.01l-.17-21.51c0-.93-.51-1.78-1.32-2.23l-13.81-7.61c-.72-.4-1.28-1.02-1.61-1.78l-15.01-35.2c-.92-2.16-5.41-3.49-8.33-3.07l-10.51,1.14c-3.02.94-5.67,5.17-4.93,7.2l18.45,52.94-49.63-18c-3.85-1.39-8.64.31-9.85,5.15l-.55,7.58c-.21,4.75.44,9.02,4.61,10.83l34.59,15.65c.76.34,1.38.92,1.79,1.64l6.97,12.48c.52.92,1.48,1.51,2.54,1.54l20.28.53c-10.58,15.06-17.79,32.64-20.53,51.68l-15.34-15.1c-.66-.65-1.62-.89-2.51-.64l-15.15,4.38c-.79.23-1.63.19-2.39-.12l-35.5-14.28c-2.18-.88-6.3,1.36-8.06,3.71l-6.62,8.24c-1.47,2.8-.35,7.67,1.61,8.57l50.48,24.39-47.82,22.37c-3.71,1.74-5.89,6.33-3.32,10.61l4.97,5.75c3.21,3.51,6.69,6.07,10.92,4.4l35.53-13.39c.78-.29,1.62-.33,2.42-.1l13.75,3.9c1.02.29,2.12.02,2.89-.71l14.71-13.97c3.3,18.9,10.98,36.3,22.01,51.06l-21.51.17c-.93,0-1.78.51-2.22,1.33l-7.61,13.81c-.4.72-1.02,1.28-1.78,1.61l-35.2,15.01c-2.16.92-3.49,5.41-3.08,8.32l1.14,10.51c.94,3.02,5.17,5.67,7.2,4.93l52.94-18.45-18,49.63c-1.39,3.85.31,8.64,5.15,9.85l7.58.55c4.75.21,9.02-.44,10.83-4.61l15.65-34.59c.34-.75.92-1.38,1.64-1.79l12.48-6.97c.92-.52,1.51-1.48,1.54-2.54l.53-20.29c15.06,10.58,32.64,17.79,51.68,20.53l-15.1,15.34c-.65.66-.89,1.62-.63,2.51l4.38,15.15c.23.79.18,1.63-.12,2.39l-14.28,35.5c-.88,2.18,1.36,6.3,3.71,8.06l8.24,6.62c2.8,1.47,7.67.35,8.58-1.61l24.39-50.49,22.37,47.82c1.74,3.71,6.33,5.89,10.61,3.32l5.75-4.97c3.51-3.21,6.07-6.69,4.4-10.92l-13.39-35.53c-.29-.78-.33-1.63-.1-2.42l3.89-13.76c.29-1.02.02-2.11-.71-2.88l-13.96-14.71c18.9-3.3,36.3-10.98,51.06-22.01l.17,21.51c0,.93.51,1.78,1.32,2.22l13.81,7.61c.72.4,1.28,1.02,1.61,1.78l15.01,35.2c.92,2.16,5.41,3.49,8.33,3.07l10.51-1.14c3.02-.94,5.67-5.17,4.93-7.2l-18.45-52.94,49.63,18c3.85,1.39,8.64-.31,9.85-5.15l.55-7.58c.21-4.75-.44-9.02-4.61-10.83l-34.59-15.65c-.76-.34-1.38-.92-1.79-1.64l-6.97-12.48c-.52-.92-1.48-1.51-2.54-1.54l-20.29-.53c10.58-15.06,17.79-32.64,20.53-51.68l15.34,15.1c.66.65,1.62.89,2.51.64l15.15-4.38c.79-.23,1.63-.19,2.39.12l35.5,14.28c2.18.88,6.3-1.36,8.06-3.71l6.62-8.24c1.47-2.8.35-7.67-1.61-8.57Zm-116.7-35.86h-25.53c-1.86-8.44-5.43-16.23-10.34-22.99l17.89-17.89c9.25,11.59,15.61,25.57,17.97,40.89Zm-76.3-73.16c15.45,1.73,29.68,7.49,41.61,16.22l-18.04,18.04c-7.02-4.49-14.99-7.61-23.56-8.97v-25.3Zm-23.18.46v25.53c-8.44,1.86-16.23,5.43-22.99,10.34l-17.9-17.89c11.59-9.25,25.57-15.61,40.89-17.97Zm-56.94,34.7l18.04,18.04c-4.49,7.02-7.61,15-8.96,23.56h-25.3c1.73-15.45,7.49-29.68,16.22-41.61Zm-15.76,64.78h25.53c1.86,8.44,5.43,16.23,10.34,22.99l-17.9,17.89c-9.24-11.59-15.61-25.57-17.97-40.89Zm76.3,73.16c-15.45-1.73-29.68-7.49-41.6-16.22l18.04-18.04c7.02,4.49,15,7.61,23.56,8.97v25.3Zm9.79-56.31c-16.7,0-30.24-13.54-30.24-30.24s13.54-30.24,30.24-30.24,30.24,13.54,30.24,30.24-13.54,30.24-30.24,30.24Zm13.39,55.85h0v-25.53c8.44-1.86,16.23-5.43,22.99-10.34l17.89,17.89c-11.59,9.25-25.57,15.61-40.88,17.97Zm56.94-34.7l-18.04-18.04c4.49-7.02,7.61-15,8.96-23.56h25.3c-1.73,15.45-7.49,29.68-16.22,41.61Z"/>
    </g>
  </g>
</svg>