<svg width="50" height="50" viewBox="0 0 50 50" fill="none" xmlns="http://www.w3.org/2000/svg">
<path d="M15 24.7387V36.0003H20.3693V23.8317V20.6671H15V24.7387Z" fill="white"/>
<path d="M17.6813 13C16.2049 13 15 14.1983 15 15.6813C15 17.1643 16.2049 18.3626 17.6813 18.3626C19.1577 18.3626 20.3626 17.1643 20.3626 15.6813C20.3626 14.1983 19.1643 13 17.6813 13Z" fill="white"/>
<path d="M37.8872 25.3743C37.5231 22.4811 36.199 20.6671 32.2862 20.6671C29.969 20.6671 28.4132 21.5278 27.7776 22.7393H27.7114V20.6671H23.4346V36.0003H27.9034V28.3999C27.9034 26.3939 28.2808 24.4541 30.7635 24.4541C33.2462 24.4541 33.4051 26.7448 33.4051 28.5257V35.9937H38.0064V27.5657C38.0064 26.7779 37.9733 26.043 37.8872 25.3677V25.3743Z" fill="white"/>
<path d="M49 25V49H25C11.7452 49 1 38.2548 1 25C1 11.7452 11.7452 1 25 1C38.2548 1 49 11.7452 49 25Z" stroke="white" stroke-width="2"/>
</svg>
