<?xml version="1.0" encoding="UTF-8"?>
<svg id="Layer_2" data-name="Layer 2" xmlns="http://www.w3.org/2000/svg" xmlns:xlink="http://www.w3.org/1999/xlink" viewBox="0 0 812 812">
  <defs>
    <style>
      .cls-1 {
        fill: url(#linear-gradient-2);
      }

      .cls-2 {
        fill: url(#linear-gradient-6);
      }

      .cls-3 {
        fill: url(#linear-gradient-5);
      }

      .cls-4 {
        fill: url(#linear-gradient-7);
      }

      .cls-5 {
        fill: url(#linear-gradient-3);
      }

      .cls-6 {
        fill: url(#linear-gradient);
      }

      .cls-7 {
        fill: url(#linear-gradient-4);
      }

      .cls-8 {
        fill: url(#linear-gradient-8);
      }
    </style>
    <linearGradient id="linear-gradient" x1="406" y1="0" x2="406" y2="812" gradientUnits="userSpaceOnUse">
      <stop offset="0" stop-color="#fed135"/>
      <stop offset="1" stop-color="#fd3f10"/>
    </linearGradient>
    <linearGradient id="linear-gradient-2" x1="248.86" y1="419.6" x2="248.86" y2="491.68" xlink:href="#linear-gradient"/>
    <linearGradient id="linear-gradient-3" x1="339.16" y1="442.02" x2="339.16" y2="511.95" xlink:href="#linear-gradient"/>
    <linearGradient id="linear-gradient-4" x1="556.1" y1="420.99" x2="556.1" y2="490.81" xlink:href="#linear-gradient"/>
    <linearGradient id="linear-gradient-5" x1="412.04" y1="420.99" x2="412.04" y2="490.81" xlink:href="#linear-gradient"/>
    <linearGradient id="linear-gradient-6" x1="486.67" y1="421.11" x2="486.67" y2="501.2" xlink:href="#linear-gradient"/>
    <linearGradient id="linear-gradient-7" x1="492.21" y1="303.5" x2="492.21" y2="314.61" xlink:href="#linear-gradient"/>
    <linearGradient id="linear-gradient-8" x1="533.83" y1="274.81" x2="533.83" y2="442.06" xlink:href="#linear-gradient"/>
  </defs>
  <g id="Layer_1-2" data-name="Layer 1">
    <g>
      <path class="cls-6" d="m406,0h0C181.77,0,0,181.77,0,406h0c0,224.23,181.77,406,406,406h0c224.23,0,406-181.77,406-406h0C812,181.77,630.23,0,406,0Zm256,585.2c0,42.42-34.38,76.8-76.8,76.8H226.8c-42.42,0-76.8-34.38-76.8-76.8V226.8c0-42.42,34.38-76.8,76.8-76.8h358.4c42.42,0,76.8,34.38,76.8,76.8v358.4Z"/>
      <path class="cls-1" d="m289.35,421.08c-10.27-3.59-17.16-.48-20.28,7.28l-20.54,51.4-19.88-51.4c-2.99-7.76-10.01-10.86-20.28-7.28-4.29,1.45-6.37,4.27-6.37,10.09v59.64h13.52v-59.74l20.93,52.08c2.47,6.3,5.85,8.53,12.48,8.53s9.88-2.23,12.35-8.53l20.93-52.08v59.74h13.52v-59.64c0-5.82-2.08-8.64-6.37-10.09Z"/>
      <path class="cls-5" d="m357.79,442.02v39.19c-.24,0-25.62.07-29.4,0-7.4-.13-8.04-4.33-7.92-6.12v-32.91h-13.51c.3.33,0,33.26,0,33.95.11,7.51,8.62,14.04,21.99,14.18h28.73v3.97c0,1.63,1.03,6.47-7.67,7.49-.11.01-42.69,0-42.76,0v10.18h42.68c6.77-.22,21.46-3.08,21.38-16.27,0-.22.08-53.67.01-53.67h-13.55Z"/>
      <path class="cls-7" d="m539.66,473.16v-52.17h-13.52v52.27h0c0,10.37,6.89,16.19,20.79,17.36,1.3.1,2.6.19,3.9.19h35.23v-10.08h-35.48c-7.93,0-10.92-2.23-10.92-7.57Z"/>
      <path class="cls-3" d="m393.45,422.25c-8.06,2.81-11.57,7.27-11.57,15.03v8.82c0,6.79,6.89,12.61,18.46,13.97,1.3.09,2.6.2,3.9.2h14.04c.52,0,1.04,0,1.43.09,4.29.39,6.11,1.26,7.41,3,.78.87,1.04,1.75,1.04,2.71v8.83c0,1.06-.65,2.42-1.95,3.59-1.17,1.16-3.12,1.94-5.72,2.14l-1.43.1h-37.31v10.08h38.87c4.55,0,8.97-1.06,12.48-2.91,5.85-3,8.71-7.08,8.71-12.42v-11.05c0-4.36-3.25-8.44-9.62-11.15-3.38-1.46-7.54-2.23-11.57-2.23h-16.38c-5.46,0-8.06-1.84-8.71-5.91-.13-.49-.13-.87-.13-1.36v-6.89c0-.39,0-.78.13-1.26.65-3.1,2.08-3.98,6.89-4.46l1.3-.1h38.61v-10.08h-37.95c-5.46,0-8.32.39-10.92,1.26Z"/>
      <path class="cls-2" d="m517.64,473.78v-35.96c0-9.14-5.74-14.67-17.07-16.42-1.3-.2-2.47-.29-3.77-.29h-25.66c-1.17,0-2.47.1-3.65.29-11.33,1.75-17.06,7.29-17.06,16.42v35.96c0,8.36,4.17,13.41,12.77,16.04,2.87.88,5.47,1.26,7.94,1.26h14.46l10.84-.77,10.77,10.89h15.7l-13.32-13.45c5.61-2.59,8.04-6.55,8.04-13.96Zm-12.64-.58c0,.49,0,.97-.13,1.46-.42,2.12-1.61,3.77-3.43,4.86l-9.83-9.94h-15.7l11.28,11.4h-12.28c-5.34,0-8.86-2.33-9.64-6.51-.13-.58-.26-1.07-.26-1.56h0v-34.2c0-4.57,3.91-7.48,9.9-7.48h20.45c5.21,0,8.73,2.23,9.51,6.12.13.49.13.98.13,1.36v34.5Z"/>
      <path class="cls-4" d="m492.33,303.51c-1.73-.04-2.96.21-4.25.53v.26h.24c.83,1.9,2.28,3.13,3.31,4.76l2.37,5.55.23-.26c1.46-1.15,2.13-3,2.13-5.82-.59-.69-.67-1.56-1.18-2.38-.67-1.1-1.98-1.72-2.83-2.65Z"/>
      <path class="cls-8" d="m605.27,434.66c-3-4.46-6.81-8.38-10.87-11.63-3.23-2.6-10.46-6.11-11.81-10.31l-.24-.26c2.29-.29,4.97-1.22,7.09-1.85,3.55-1.07,6.73-.79,10.4-1.85l4.96-1.59v-1.05c-1.85-2.13-3.18-4.95-5.2-6.87-5.29-5.04-11.07-10.08-17.01-14.28-3.3-2.33-7.37-3.84-10.87-5.81-1.17-.67-3.24-1.01-4.02-2.12-1.84-2.62-2.84-5.94-4.25-8.99-2.96-6.39-5.88-13.37-8.51-20.1-1.79-4.58-2.96-9.11-5.2-13.22-10.73-19.74-22.28-31.66-40.17-43.37-3.81-2.49-8.39-3.47-13.23-4.76l-7.8-.53c-1.58-.74-3.23-2.91-4.72-3.97-5.93-4.19-21.13-13.3-25.52-1.32-2.77,7.56,4.15,14.94,6.62,18.78,1.73,2.69,3.96,5.7,5.2,8.72.82,1.99.95,3.98,1.66,6.08,1.71,5.18,3.21,10.82,5.43,15.6,1.12,2.42,2.36,4.97,3.78,7.14.87,1.33,2.36,1.91,2.6,3.97-1.46,2.28-1.54,5.83-2.36,8.72-3.69,13.03-2.3,29.23,3.07,38.87,1.65,2.96,5.53,9.31,10.87,6.87,4.67-2.13,3.63-8.72,4.97-14.55.3-1.31.12-2.29.71-3.17v.27l4.25,9.52c3.15,5.67,8.73,11.6,13.47,15.6,2.45,2.07,4.39,5.66,7.56,6.87v-.27h-.23c-.62-1.07-1.58-1.51-2.37-2.38-1.85-2.03-3.91-4.55-5.43-6.87-4.31-6.54-8.11-13.7-11.58-21.16-1.66-3.56-3.09-7.48-4.49-11.11-.54-1.4-.53-3.51-1.65-4.23-1.53,2.65-3.78,4.8-4.97,7.93-1.89,5.01-2.13,11.12-2.83,17.45l-.47.26c-3.29-.89-4.45-4.68-5.67-7.93-3.09-8.22-3.67-21.47-.94-30.94.7-2.45,3.89-10.17,2.6-12.43-.62-2.26-2.65-3.56-3.78-5.29-1.41-2.13-2.81-4.94-3.78-7.41-2.53-6.41-3.71-13.61-6.38-20.09-1.28-3.1-3.43-6.23-5.2-8.99-1.96-3.06-4.15-5.3-5.67-8.99-.54-1.31-1.27-3.41-.47-4.76.25-.91.62-1.29,1.42-1.59,1.37-1.18,5.19.39,6.61,1.06,3.79,1.76,6.95,3.44,10.16,5.82,1.54,1.15,3.1,3.35,4.96,3.97h2.13c3.33.85,7.05.26,10.16,1.32,5.49,1.87,10.42,4.78,14.89,7.94,13.62,9.63,24.75,23.32,32.37,39.67,1.22,2.63,1.76,5.14,2.83,7.93,2.18,5.63,4.92,11.42,7.09,16.92,2.16,5.49,4.27,11.03,7.33,15.6,1.61,2.4,7.81,3.69,10.63,5.02,1.98.94,5.22,1.91,7.09,3.17,3.58,2.42,7.04,5.29,10.4,7.94,1.67,1.33,6.83,4.23,7.09,6.62-8.31-.25-14.66.61-20.08,3.17-1.54.73-4,.75-4.25,2.91.85,1,.98,2.48,1.65,3.7,1.3,2.35,3.48,5.49,5.44,7.14,2.13,1.8,4.33,3.73,6.62,5.29,4.06,2.78,8.6,4.36,12.52,7.14,2.31,1.64,4.6,3.7,6.85,5.56,1.12.91,1.86,2.33,3.31,2.91v-.26c-.76-1.08-.96-2.57-1.66-3.7l-3.07-3.44Z"/>
    </g>
  </g>
</svg>