<?xml version="1.0" encoding="UTF-8"?>
<svg id="Layer_2" data-name="Layer 2" xmlns="http://www.w3.org/2000/svg" xmlns:xlink="http://www.w3.org/1999/xlink" viewBox="0 0 812 812">
  <defs>
    <style>
      .cls-1 {
        fill: url(#linear-gradient-2);
      }

      .cls-2 {
        fill: url(#linear-gradient-6);
      }

      .cls-3 {
        fill: url(#linear-gradient-5);
      }

      .cls-4 {
        fill: url(#linear-gradient-7);
      }

      .cls-5 {
        fill: url(#linear-gradient-3);
      }

      .cls-6 {
        fill: url(#linear-gradient);
      }

      .cls-7 {
        fill: url(#linear-gradient-4);
      }
    </style>
    <linearGradient id="linear-gradient" x1="406" y1="0" x2="406" y2="812" gradientUnits="userSpaceOnUse">
      <stop offset="0" stop-color="#fed135"/>
      <stop offset="1" stop-color="#fd3f10"/>
    </linearGradient>
    <linearGradient id="linear-gradient-2" x1="409.67" y1="402.15" x2="409.67" y2="451.79" xlink:href="#linear-gradient"/>
    <linearGradient id="linear-gradient-3" x1="338.96" y1="360.06" x2="338.96" y2="451.72" xlink:href="#linear-gradient"/>
    <linearGradient id="linear-gradient-4" x1="232.2" y1="359.96" x2="232.2" y2="451.88" xlink:href="#linear-gradient"/>
    <linearGradient id="linear-gradient-5" x1="409.67" y1="359.94" x2="409.67" y2="394.49" xlink:href="#linear-gradient"/>
    <linearGradient id="linear-gradient-6" x1="579.72" y1="360.12" x2="579.72" y2="451.86" xlink:href="#linear-gradient"/>
    <linearGradient id="linear-gradient-7" x1="476.56" y1="360.15" x2="476.56" y2="452.06" xlink:href="#linear-gradient"/>
  </defs>
  <g id="Layer_1-2" data-name="Layer 1">
    <g>
      <path class="cls-6" d="m406,0h0C181.77,0,0,181.77,0,406h0c0,224.23,181.77,406,406,406h0c224.23,0,406-181.77,406-406h0C812,181.77,630.23,0,406,0Zm256,585.2c0,42.42-34.38,76.8-76.8,76.8H226.8c-42.42,0-76.8-34.38-76.8-76.8V226.8c0-42.42,34.38-76.8,76.8-76.8h358.4c42.42,0,76.8,34.38,76.8,76.8v358.4Z"/>
      <path class="cls-1" d="m400.12,442.12c-.06,5,4.43,9.61,9.43,9.67,5.08.06,9.73-4.59,9.67-9.67v-39.97h-19.1v39.97Z"/>
      <path class="cls-5" d="m336.45,402.07c-5.04-.07-9.69,4.5-9.69,9.55s4.64,9.62,9.69,9.55l23.39-.12-5.73,11.58h-30.08l-14.92-26.26,15.04-27.21h31.99l7.46,15.31h19.22l-12.11-29.03-2.63-5.37h-55.27l-2.62,4.9-20.29,36.88-2.62,4.66,2.62,4.65,20.29,35.69,2.74,4.89h53.11l2.62-5.37,15.16-30.56,6.8-13.84h-15.4l-38.79.12Z"/>
      <path class="cls-7" d="m268.6,359.97c-5.27,0-9.55,4.27-9.55,9.55v49.76l-56.51-56.51c-2.73-2.73-6.84-3.55-10.4-2.07-3.57,1.48-5.9,4.96-5.9,8.82v72.81c0,5.27,4.28,9.55,9.55,9.55s9.55-4.27,9.55-9.55v-49.76l56.51,56.51c1.83,1.83,4.27,2.8,6.75,2.8h0c5.27,0,9.55-4.28,9.55-9.55v-72.81c0-5.27-4.27-9.55-9.55-9.55Z"/>
      <path class="cls-3" d="m409.55,359.94c-5,.06-9.49,4.67-9.43,9.67v24.88h19.1v-24.88c.06-5.08-4.59-9.73-9.67-9.67Z"/>
      <path class="cls-2" d="m622.97,362.93c-3.72-3.74-9.76-3.74-13.5-.02l-29.75,29.65-29.75-29.65c-3.74-3.72-9.78-3.71-13.5.02-3.72,3.74-3.71,9.79.02,13.51l29.7,29.6-29.62,29.51c-3.74,3.72-3.75,9.77-.02,13.5,1.79,1.8,4.22,2.82,6.76,2.81,2.44,0,4.87-.93,6.74-2.79l29.67-29.56,29.66,29.56c1.79,1.79,4.21,2.79,6.74,2.79,2.45,0,4.9-.94,6.76-2.81,3.72-3.73,3.71-9.78-.02-13.5l-29.62-29.51,29.7-29.59c3.74-3.72,3.75-9.77.02-13.51Z"/>
      <path class="cls-4" d="m516.62,360.88c-3.57-1.48-7.68-.66-10.4,2.07l-56.51,56.51v-49.76c0-5.28-4.27-9.55-9.55-9.55s-9.55,4.27-9.55,9.55v72.81c0,5.27,4.27,9.54,9.54,9.55,2.53,0,4.96-1,6.75-2.8l56.51-56.51v49.76c0,5.27,4.27,9.55,9.55,9.55s9.55-4.27,9.55-9.55v-72.81c0-3.86-2.33-7.34-5.89-8.82Z"/>
    </g>
  </g>
</svg>