<?xml version="1.0" encoding="UTF-8"?>
<svg id="Layer_2" data-name="Layer 2" xmlns="http://www.w3.org/2000/svg" xmlns:xlink="http://www.w3.org/1999/xlink" viewBox="0 0 812 812">
  <defs>
    <style>
      .cls-1 {
        fill: url(#linear-gradient-2);
      }

      .cls-2 {
        fill: url(#linear-gradient-17);
      }

      .cls-3 {
        fill: url(#linear-gradient-43);
      }

      .cls-4 {
        fill: url(#linear-gradient-15);
      }

      .cls-5 {
        fill: url(#linear-gradient-18);
      }

      .cls-6 {
        fill: url(#linear-gradient-40);
      }

      .cls-7 {
        fill: url(#linear-gradient-28);
      }

      .cls-8 {
        fill: url(#linear-gradient-14);
      }

      .cls-9 {
        fill: url(#linear-gradient-36);
      }

      .cls-10 {
        fill: url(#linear-gradient-20);
      }

      .cls-11 {
        fill: url(#linear-gradient-6);
      }

      .cls-12 {
        fill: url(#linear-gradient-35);
      }

      .cls-13 {
        fill: url(#linear-gradient-48);
      }

      .cls-14 {
        fill: url(#linear-gradient-32);
      }

      .cls-15 {
        fill: url(#linear-gradient-11);
      }

      .cls-16 {
        fill: url(#linear-gradient-50);
      }

      .cls-17 {
        fill: url(#linear-gradient-39);
      }

      .cls-18 {
        fill: url(#linear-gradient-10);
      }

      .cls-19 {
        fill: url(#linear-gradient-49);
      }

      .cls-20 {
        fill: url(#linear-gradient-37);
      }

      .cls-21 {
        fill: url(#linear-gradient-16);
      }

      .cls-22 {
        fill: url(#linear-gradient-31);
      }

      .cls-23 {
        fill: url(#linear-gradient-41);
      }

      .cls-24 {
        fill: url(#linear-gradient-21);
      }

      .cls-25 {
        fill: url(#linear-gradient-25);
      }

      .cls-26 {
        fill: url(#linear-gradient-5);
      }

      .cls-27 {
        fill: url(#linear-gradient-45);
      }

      .cls-28 {
        fill: url(#linear-gradient-34);
      }

      .cls-29 {
        fill: url(#linear-gradient-7);
      }

      .cls-30 {
        fill: url(#linear-gradient-24);
      }

      .cls-31 {
        fill: url(#linear-gradient-9);
      }

      .cls-32 {
        fill: url(#linear-gradient-22);
      }

      .cls-33 {
        fill: url(#linear-gradient-42);
      }

      .cls-34 {
        fill: url(#linear-gradient-3);
      }

      .cls-35 {
        fill: url(#linear-gradient);
      }

      .cls-36 {
        fill: url(#linear-gradient-27);
      }

      .cls-37 {
        fill: url(#linear-gradient-33);
      }

      .cls-38 {
        fill: url(#linear-gradient-38);
      }

      .cls-39 {
        fill: url(#linear-gradient-29);
      }

      .cls-40 {
        fill: url(#linear-gradient-30);
      }

      .cls-41 {
        fill: url(#linear-gradient-23);
      }

      .cls-42 {
        fill: url(#linear-gradient-19);
      }

      .cls-43 {
        fill: url(#linear-gradient-4);
      }

      .cls-44 {
        fill: url(#linear-gradient-8);
      }

      .cls-45 {
        fill: url(#linear-gradient-44);
      }

      .cls-46 {
        fill: url(#linear-gradient-47);
      }

      .cls-47 {
        fill: url(#linear-gradient-46);
      }

      .cls-48 {
        fill: url(#linear-gradient-12);
      }

      .cls-49 {
        fill: url(#linear-gradient-13);
      }

      .cls-50 {
        fill: url(#linear-gradient-26);
      }
    </style>
    <linearGradient id="linear-gradient" x1="406" y1="0" x2="406" y2="812" gradientUnits="userSpaceOnUse">
      <stop offset="0" stop-color="#fed135"/>
      <stop offset="1" stop-color="#fd3f10"/>
    </linearGradient>
    <linearGradient id="linear-gradient-2" x1="403.73" y1="431.14" x2="403.73" y2="534" xlink:href="#linear-gradient"/>
    <linearGradient id="linear-gradient-3" x1="414.84" y1="462.09" x2="414.84" y2="504.05" xlink:href="#linear-gradient"/>
    <linearGradient id="linear-gradient-4" x1="241.9" y1="335.74" x2="241.9" y2="428.04" xlink:href="#linear-gradient"/>
    <linearGradient id="linear-gradient-5" x1="460.76" y1="278" x2="460.76" y2="439.01" xlink:href="#linear-gradient"/>
    <linearGradient id="linear-gradient-6" x1="570.29" y1="336.33" x2="570.29" y2="437.97" xlink:href="#linear-gradient"/>
    <linearGradient id="linear-gradient-7" x1="570.34" y1="377.27" x2="570.34" y2="397.02" xlink:href="#linear-gradient"/>
    <linearGradient id="linear-gradient-8" x1="351.92" y1="336.51" x2="351.92" y2="336.64" xlink:href="#linear-gradient"/>
    <linearGradient id="linear-gradient-9" x1="306.73" y1="411.74" x2="306.73" y2="412.04" xlink:href="#linear-gradient"/>
    <linearGradient id="linear-gradient-10" x1="307.1" y1="412.61" x2="307.1" y2="412.66" xlink:href="#linear-gradient"/>
    <linearGradient id="linear-gradient-11" x1="328.89" y1="337.15" x2="328.89" y2="360.12" xlink:href="#linear-gradient"/>
    <linearGradient id="linear-gradient-12" x1="306.5" y1="411.03" x2="306.5" y2="411.32" xlink:href="#linear-gradient"/>
    <linearGradient id="linear-gradient-13" x1="395.79" y1="362.47" x2="395.79" y2="362.53" xlink:href="#linear-gradient"/>
    <linearGradient id="linear-gradient-14" x1="395.3" y1="361.5" x2="395.3" y2="361.79" xlink:href="#linear-gradient"/>
    <linearGradient id="linear-gradient-15" x1="394.85" y1="360.97" x2="394.85" y2="361.2" xlink:href="#linear-gradient"/>
    <linearGradient id="linear-gradient-16" x1="396.06" y1="410.3" x2="396.06" y2="411.37" xlink:href="#linear-gradient"/>
    <linearGradient id="linear-gradient-17" x1="396.06" y1="363.27" x2="396.06" y2="363.44" xlink:href="#linear-gradient"/>
    <linearGradient id="linear-gradient-18" x1="394.68" y1="412.43" x2="394.68" y2="414.46" xlink:href="#linear-gradient"/>
    <linearGradient id="linear-gradient-19" x1="395.07" y1="361.2" x2="395.07" y2="361.5" xlink:href="#linear-gradient"/>
    <linearGradient id="linear-gradient-20" x1="395.92" y1="362.53" x2="395.92" y2="363.27" xlink:href="#linear-gradient"/>
    <linearGradient id="linear-gradient-21" x1="395.59" y1="361.79" x2="395.59" y2="362.47" xlink:href="#linear-gradient"/>
    <linearGradient id="linear-gradient-22" x1="396.13" y1="363.44" x2="396.13" y2="364.28" xlink:href="#linear-gradient"/>
    <linearGradient id="linear-gradient-23" x1="394.18" y1="360.12" x2="394.18" y2="361.11" xlink:href="#linear-gradient"/>
    <linearGradient id="linear-gradient-24" x1="352.31" y1="336.62" x2="352.31" y2="336.75" xlink:href="#linear-gradient"/>
    <linearGradient id="linear-gradient-25" x1="307.43" y1="412.66" x2="307.43" y2="413.37" xlink:href="#linear-gradient"/>
    <linearGradient id="linear-gradient-26" x1="306.94" y1="412.04" x2="306.94" y2="412.61" xlink:href="#linear-gradient"/>
    <linearGradient id="linear-gradient-27" x1="306.43" y1="410.3" x2="306.43" y2="411.03" xlink:href="#linear-gradient"/>
    <linearGradient id="linear-gradient-28" x1="306.6" y1="411.32" x2="306.6" y2="411.74" xlink:href="#linear-gradient"/>
    <linearGradient id="linear-gradient-29" x1="347.41" y1="328.74" x2="347.41" y2="329.03" xlink:href="#linear-gradient"/>
    <linearGradient id="linear-gradient-30" x1="350.13" y1="336.51" x2="350.13" y2="337.15" xlink:href="#linear-gradient"/>
    <linearGradient id="linear-gradient-31" x1="352.22" y1="336.61" x2="352.22" y2="336.62" xlink:href="#linear-gradient"/>
    <linearGradient id="linear-gradient-32" x1="381.08" y1="385.87" x2="381.08" y2="386.01" xlink:href="#linear-gradient"/>
    <linearGradient id="linear-gradient-33" x1="352.31" y1="336.75" x2="352.31" y2="336.88" xlink:href="#linear-gradient"/>
    <linearGradient id="linear-gradient-34" x1="352.17" y1="336.59" x2="352.17" y2="336.61" xlink:href="#linear-gradient"/>
    <linearGradient id="linear-gradient-35" x1="395.87" y1="411.02" x2="395.87" y2="411.34" xlink:href="#linear-gradient"/>
    <linearGradient id="linear-gradient-36" x1="323.52" y1="386.07" x2="323.52" y2="386.22" xlink:href="#linear-gradient"/>
    <linearGradient id="linear-gradient-37" x1="309.2" y1="360.02" x2="309.2" y2="360.1" xlink:href="#linear-gradient"/>
    <linearGradient id="linear-gradient-38" x1="397.26" y1="413.23" x2="397.26" y2="413.89" xlink:href="#linear-gradient"/>
    <linearGradient id="linear-gradient-39" x1="395.79" y1="412.04" x2="395.79" y2="412.2" xlink:href="#linear-gradient"/>
    <linearGradient id="linear-gradient-40" x1="330.13" y1="413.37" x2="330.13" y2="438.18" xlink:href="#linear-gradient"/>
    <linearGradient id="linear-gradient-41" x1="373.18" y1="414.46" x2="373.18" y2="437.92" xlink:href="#linear-gradient"/>
    <linearGradient id="linear-gradient-42" x1="395.71" y1="412.2" x2="395.71" y2="412.43" xlink:href="#linear-gradient"/>
    <linearGradient id="linear-gradient-43" x1="395.95" y1="411.37" x2="395.95" y2="412.04" xlink:href="#linear-gradient"/>
    <linearGradient id="linear-gradient-44" x1="373.5" y1="336.64" x2="373.5" y2="385.87" xlink:href="#linear-gradient"/>
    <linearGradient id="linear-gradient-45" x1="388.5" y1="361.11" x2="388.5" y2="411.02" xlink:href="#linear-gradient"/>
    <linearGradient id="linear-gradient-46" x1="315.12" y1="360.1" x2="315.12" y2="413.15" xlink:href="#linear-gradient"/>
    <linearGradient id="linear-gradient-47" x1="329.82" y1="386.22" x2="329.82" y2="438.06" xlink:href="#linear-gradient"/>
    <linearGradient id="linear-gradient-48" x1="330.76" y1="336.52" x2="330.76" y2="386.07" xlink:href="#linear-gradient"/>
    <linearGradient id="linear-gradient-49" x1="374.26" y1="386.01" x2="374.26" y2="437.85" xlink:href="#linear-gradient"/>
    <linearGradient id="linear-gradient-50" x1="352.3" y1="336.88" x2="352.3" y2="438.02" xlink:href="#linear-gradient"/>
  </defs>
  <g id="Layer_1-2" data-name="Layer 1">
    <g>
      <path class="cls-35" d="m406,0h0C181.77,0,0,181.77,0,406h0c0,224.23,181.77,406,406,406h0c224.23,0,406-181.77,406-406h0C812,181.77,630.23,0,406,0Zm256,585.2c0,42.42-34.38,76.8-76.8,76.8H226.8c-42.42,0-76.8-34.38-76.8-76.8V226.8c0-42.42,34.38-76.8,76.8-76.8h358.4c42.42,0,76.8,34.38,76.8,76.8v358.4Z"/>
      <path class="cls-1" d="m445.41,453.96l-37.71-21.83c-2.36-1.32-5.58-1.32-7.94,0l-37.71,21.83c-2.46,1.42-3.97,4.06-3.97,6.9v43.57c0,2.84,1.51,5.48,3.97,6.9l9.92,5.67c4.82,2.36,6.52,2.36,8.69,2.36,7.09,0,11.15-4.35,11.15-11.81v-43c0-.66-.57-1.13-1.13-1.13h-4.82c-.66,0-1.13.57-1.13,1.13v43c0,3.31-3.5,6.62-9.07,3.78l-10.3-5.95c-.38-.19-.57-.66-.57-1.04v-43.57c0-.38.19-.85.57-1.04l37.71-21.74c.28-.19.76-.19,1.13,0l37.71,21.74c.38.19.57.57.57,1.04v43.57c0,.47-.19.85-.57,1.04l-37.71,21.83c-.28.19-.76.19-1.13,0l-9.64-5.76c-.28-.19-.66-.28-.95-.09-2.65,1.51-3.12,1.7-5.67,2.55-.57.19-1.51.57.38,1.61l12.57,7.47c1.23.66,2.55,1.04,3.97,1.04h0c1.32,0,2.74-.28,3.97-.85l37.71-21.83c2.46-1.42,3.97-4.06,3.97-6.9v-43.57c0-2.84-1.51-5.48-3.97-6.9Z"/>
      <path class="cls-34" d="m415.45,497.34c-10.02,0-12.19-2.46-12.95-7.47,0-.57-.47-.95-1.04-.95h-4.91c-.66,0-1.13.57-1.13,1.13,0,6.43,3.4,13.99,19.94,13.99,12,0,18.81-4.73,18.9-13.04,0-8.13-5.48-10.3-17.11-11.81-11.72-1.51-12.95-2.36-12.95-5.1,0-2.27,1.04-5.29,9.73-5.29,7.75,0,10.68,1.7,11.81,6.9.09.47.57.85,1.04.85h4.91c.28,0,.57-.19.76-.38.19-.28.28-.57.28-.85-.76-9.07-6.71-13.23-18.81-13.23-10.77,0-17.2,4.54-17.2,12.19,0,8.22,6.43,10.49,16.73,11.53,12.38,1.23,13.32,3.02,13.32,5.48,0,4.25-3.4,6.05-11.34,6.05Z"/>
      <path class="cls-43" d="m284.28,359.46l-40.07-23.06c-.66-.38-1.42-.57-2.17-.66h-.38c-.76,0-1.51.28-2.17.66l-40.07,23.06c-1.51.85-2.46,2.46-2.46,4.16l.09,61.99c0,.85.47,1.7,1.23,2.08.76.47,1.7.47,2.36,0l23.81-13.61c1.51-.85,2.46-2.46,2.46-4.16v-29.01c0-1.7.94-3.31,2.46-4.16l10.11-5.86c.76-.47,1.61-.66,2.46-.66s1.7.19,2.36.66l10.11,5.86c1.51.85,2.46,2.46,2.46,4.16v29.01c0,1.7.95,3.31,2.46,4.16l23.81,13.61c.76.47,1.7.47,2.46,0,.76-.38,1.23-1.23,1.23-2.08l-.09-61.99c0-1.7-.95-3.31-2.46-4.16Z"/>
      <path class="cls-26" d="m503.24,291.6l-23.91-13.32c-.76-.38-1.7-.38-2.36,0-.76.47-1.23,1.23-1.23,2.08v61.43c0,.57-.28,1.13-.85,1.51-.57.28-1.13.28-1.7,0l-10.02-5.76c-1.51-.85-3.31-.85-4.82,0l-40.07,23.15c-1.51.85-2.46,2.46-2.46,4.16v46.21c0,1.7.95,3.31,2.46,4.16l40.07,23.15c1.51.85,3.31.85,4.82,0l40.07-23.15c1.51-.85,2.46-2.46,2.46-4.16v-115.2c0-1.8-.94-3.4-2.46-4.25Zm-27.59,104.24c0,.47-.19.85-.57,1.04l-13.7,7.94c-.38.19-.85.19-1.23,0l-13.7-7.94c-.38-.19-.57-.66-.57-1.04v-15.88c0-.47.19-.85.57-1.04l13.7-7.94c.38-.19.85-.19,1.23,0l13.7,7.94c.38.19.57.66.57,1.04v15.88Z"/>
      <path class="cls-11" d="m612.68,360.02l-39.79-23.06c-1.51-.85-3.31-.85-4.82,0l-40.07,23.15c-1.51.85-2.46,2.46-2.46,4.16v46.21c0,1.7.94,3.31,2.46,4.16l39.79,22.68c1.51.85,3.31.85,4.73,0l24.1-13.42c.76-.38,1.23-1.23,1.23-2.08s-.47-1.7-1.23-2.08l-40.26-23.15c-.76-.47-1.23-1.23-1.23-2.08v-14.46c0-.85.47-1.7,1.23-2.08l12.57-7.18c.76-.47,1.7-.47,2.46,0l12.57,7.18c.76.47,1.23,1.23,1.23,2.08v11.34c0,.85.47,1.7,1.23,2.08.76.47,1.7.47,2.46,0l23.81-13.89c1.51-.85,2.36-2.46,2.36-4.16v-11.25c0-1.7-.95-3.31-2.36-4.16Z"/>
      <path class="cls-29" d="m570.81,377.41c-.28-.19-.66-.19-.95,0l-7.65,4.44c-.28.19-.47.47-.47.85v8.88c0,.38.19.66.47.85l7.65,4.44c.28.19.66.19.95,0l7.65-4.44c.28-.19.47-.47.47-.85v-8.88c0-.38-.19-.66-.47-.85l-7.65-4.44Z"/>
      <path class="cls-44" d="m351.99,336.56c.08.01.16.01.24.02l.02.03s.09.02.14.03l.03-.05c-.32-.05-.65-.08-.99-.08.14,0,.27.03.41.04.05,0,.1,0,.16.02Z"/>
      <path class="cls-31" d="m306.79,412.04c-.04-.1-.08-.2-.12-.3.04.1.07.2.12.3Z"/>
      <path class="cls-18" d="m307.12,412.66s-.02-.03-.02-.04c0,.01.02.03.02.04Z"/>
      <polygon class="cls-15" points="348.83 337.15 348.83 337.15 348.83 337.15 308.95 360.12 309.15 360.05 309.13 360.02 348.83 337.15"/>
      <path class="cls-48" d="m306.54,411.32c-.03-.1-.05-.19-.07-.29.02.1.05.2.07.29Z"/>
      <path class="cls-49" d="m395.77,362.47s.02.04.02.06c0-.02-.01-.04-.02-.06Z"/>
      <path class="cls-8" d="m395.19,361.5c.07.1.14.19.21.29-.07-.1-.14-.2-.21-.29Z"/>
      <path class="cls-4" d="m394.75,360.97v.02c.06.07.13.14.19.22-.07-.07-.12-.16-.19-.23Z"/>
      <path class="cls-21" d="m396.17,410.3c0,.33-.08.64-.23.91l.09.16c.08-.35.13-.7.13-1.07Z"/>
      <path class="cls-2" d="m396.04,363.27c.01.06.03.12.04.18-.01-.06-.03-.12-.04-.18Z"/>
      <path class="cls-5" d="m393.71,414.46c.85-.48,1.51-1.2,1.93-2.03-.45.83-1.11,1.55-1.93,2.03Z"/>
      <path class="cls-42" d="m394.95,361.2c.09.1.17.19.25.3-.08-.1-.16-.2-.25-.3Z"/>
      <path class="cls-10" d="m395.8,362.53c.1.24.18.49.24.74-.06-.25-.14-.5-.24-.74Z"/>
      <path class="cls-24" d="m395.4,361.79c.14.22.27.44.37.68-.1-.23-.23-.46-.37-.68Z"/>
      <path class="cls-32" d="m396.08,363.44c.06.27.09.55.09.83,0-.28-.04-.56-.09-.83Z"/>
      <path class="cls-41" d="m394.5,360.89c.05.06.11.11.16.17h0s.02.03.03.04l.07-.12c-.33-.34-.71-.63-1.13-.87.31.23.61.48.87.76,0,0,0,0,.01.01Z"/>
      <path class="cls-30" d="m352.38,336.65s-.09-.03-.13-.04l.08.13.06-.1Z"/>
      <path class="cls-25" d="m307.72,413.15l-.1.17c-.19-.21-.36-.43-.51-.67.16.25.34.49.54.71l.1-.17s-.02-.03-.03-.04Z"/>
      <path class="cls-50" d="m307.09,412.61c-.12-.19-.21-.38-.3-.58.09.2.19.39.3.58Z"/>
      <path class="cls-36" d="m306.47,411.03c-.04-.24-.08-.48-.08-.73,0,.25.03.49.08.73Z"/>
      <path class="cls-7" d="m306.67,411.74c-.05-.14-.09-.27-.13-.41.04.14.08.28.13.41Z"/>
      <polygon class="cls-39" points="347.6 328.74 347.03 329.03 347.79 329.03 347.6 328.74"/>
      <path class="cls-40" d="m348.83,337.15c.82-.48,1.73-.65,2.6-.64-.89-.03-1.8.14-2.6.64Z"/>
      <path class="cls-22" d="m352.25,336.62h0s-.03,0-.04-.01c.02,0,.03,0,.04.01Z"/>
      <polygon class="cls-14" points="381.06 386.01 381.12 385.91 381.1 385.87 381.04 385.97 381.06 386.01"/>
      <polygon class="cls-37" points="352.28 336.83 352.3 336.88 352.35 336.8 352.32 336.75 352.28 336.83"/>
      <path class="cls-28" d="m352.13,336.59h0s.04.01.06.02c-.02,0-.04-.01-.07-.02Z"/>
      <path class="cls-12" d="m395.89,411.34s.04-.09.06-.13l-.11-.19c0,.06-.02.11-.03.17l.09.15Z"/>
      <polygon class="cls-9" points="323.53 386.07 323.47 386.17 323.5 386.22 323.56 386.12 323.53 386.07"/>
      <polygon class="cls-20" points="309.23 360.02 309.15 360.05 309.17 360.1 309.25 360.05 309.23 360.02"/>
      <polygon class="cls-38" points="397.12 413.23 397.12 413.89 397.4 413.7 397.12 413.23"/>
      <path class="cls-17" d="m395.83,412.04c-.02.05-.04.1-.06.15.02-.05.04-.1.06-.15Z"/>
      <path class="cls-6" d="m352.61,437.99l.04-.07c-.24.07-.48.13-.7.17l-.03-.06c-.22.03-.43.04-.65.03-.13,0-.25-.02-.38-.02-.07,0-.14,0-.21-.02-.61-.07-1.2-.26-1.75-.59l-39.97-22.96c-.48-.29-.91-.66-1.29-1.09l-.03.05c.38.47.85.85,1.32,1.13l39.97,22.96c1.13.66,2.46.85,3.69.47Z"/>
      <path class="cls-23" d="m352.7,437.89l.03-.05s-.03.01-.05.02l-.03.05c.37-.1.75-.23,1.09-.4l39.97-23.06-39.88,22.96c-.38.19-.76.38-1.13.47Z"/>
      <path class="cls-33" d="m395.76,412.2c-.03.08-.08.15-.11.23.04-.08.08-.15.11-.23Z"/>
      <path class="cls-3" d="m395.83,412.04c.09-.2.19-.4.25-.61l-.04-.07c-.05.23-.12.46-.21.68Z"/>
      <path class="cls-45" d="m352.35,336.8l28.75,49.07,13.55-24.79c-.05-.06-.1-.12-.15-.18,0,0,0,0-.01-.01-.29-.29-.61-.55-.96-.76l-39.79-22.96c-.43-.24-.89-.41-1.35-.51h0c.46.12.87.27,1.27.51-.38-.19-.85-.38-1.23-.47l-.07.11Z"/>
      <path class="cls-27" d="m394.68,361.11l-13.56,24.8,14.71,25.11c.03-.24.06-.47.06-.72v-46.02c0-1.18-.46-2.3-1.21-3.17Z"/>
      <path class="cls-47" d="m309.17,360.1l-.04.02c-1.51.85-2.36,2.46-2.36,4.16v46.02c0,1.04.35,2.04.95,2.85l15.75-26.98-14.3-26.07Z"/>
      <path class="cls-46" d="m307.75,413.2c.38.5.85.94,1.38,1.26l39.79,22.96c.55.31,1.15.51,1.75.59.07,0,.14.01.21.02.13.01.25.02.38.02.21,0,.42-.02.64-.05l-28.4-51.78-15.75,26.98Z"/>
      <path class="cls-13" d="m352.28,336.83l-.14-.24s-.1-.02-.15-.03c-.05,0-.1,0-.16-.02-.99-.1-2,.09-2.91.61l-39.67,22.9,14.29,26.02,28.74-49.24Z"/>
      <path class="cls-19" d="m352.73,437.85c.35-.1.69-.24,1.01-.42l39.79-22.96c1.24-.7,2.03-1.91,2.27-3.27l-14.74-25.18-28.34,51.83Z"/>
      <path class="cls-16" d="m352.3,336.88l-28.75,49.24,28.48,51.87s-.09,0-.14.01v.02c.27-.03.52-.09.78-.16l28.37-51.89-28.74-49.1Z"/>
    </g>
  </g>
</svg>