<?xml version="1.0" encoding="UTF-8"?>
<svg id="Layer_2" data-name="Layer 2" xmlns="http://www.w3.org/2000/svg" xmlns:xlink="http://www.w3.org/1999/xlink" viewBox="0 0 812 812">
  <defs>
    <style>
      .cls-1 {
        fill: url(#linear-gradient-2);
      }

      .cls-2 {
        fill: url(#linear-gradient-3);
      }

      .cls-3 {
        fill: url(#linear-gradient);
      }
    </style>
    <linearGradient id="linear-gradient" x1="406" y1="0" x2="406" y2="812" gradientUnits="userSpaceOnUse">
      <stop offset="0" stop-color="#fed135"/>
      <stop offset="1" stop-color="#fd3f10"/>
    </linearGradient>
    <linearGradient id="linear-gradient-2" x1="332.77" y1="288.32" x2="332.77" y2="520.04" xlink:href="#linear-gradient"/>
    <linearGradient id="linear-gradient-3" x1="497.86" y1="341.53" x2="497.86" y2="523.68" xlink:href="#linear-gradient"/>
  </defs>
  <g id="Layer_1-2" data-name="Layer 1">
    <g>
      <path class="cls-3" d="m406,0h0C181.77,0,0,181.77,0,406h0c0,224.23,181.77,406,406,406h0c224.23,0,406-181.77,406-406h0C812,181.77,630.23,0,406,0Zm256,476.71c0,64.86,0,97.29-12.62,122.06-11.1,21.79-28.82,39.51-50.61,50.61-24.77,12.62-57.2,12.62-122.06,12.62h-141.41c-64.86,0-97.29,0-122.06-12.62-21.79-11.1-39.51-28.82-50.61-50.61-12.62-24.77-12.62-57.2-12.62-122.06v-141.41c0-64.86,0-97.29,12.62-122.06,11.1-21.79,28.82-39.51,50.61-50.61,24.77-12.62,57.2-12.62,122.06-12.62h141.41c64.86,0,97.29,0,122.06,12.62,21.79,11.1,39.51,28.82,50.61,50.61,12.62,24.77,12.62,57.2,12.62,122.06v141.41Z"/>
      <path class="cls-1" d="m320.39,288.32c-22.05,0-44.09,1.31-66.13,1.31-1.49,0-2.13.88-2.13,2.41v225.15c0,1.97.85,2.85,2.56,2.85h40.53c1.72,0,3.49-.98,3.2-3.06v-70.24c37.03,0,78.35.53,102.19-33.7,8.53-12.25,12.8-27.79,12.8-46.6,0-9.85-1.71-19.25-4.91-28.45-13.58-37.43-52.32-49.67-88.11-49.67Zm22.4,113.56c-14.11,4.69-29.47,4.58-44.16,3.5v-73.52c15.05-2.21,34.49-1.86,48.43,3.94,12.77,4.97,20.27,18.18,19.84,31.95,0,16.16-8.53,29.64-24.11,34.13Z"/>
      <path class="cls-2" d="m505.25,411.29c-7.37-3-24.07-8.16-24.39-18.67.01-18.83,36.03-11.31,45.17-9.16,7.11,1.51,13.98,4,20.44,7.4,1.66.85,4.11.1,3.99-2.11v-35.58c0-1.89-.41-3.99-2.4-4.58-13.9-6.06-29.93-7.17-44.86-7.05-31.94,0-67.4,16.81-67.32,54.25-.22,16.5,8.01,31.51,21.12,40.86,9.39,6.67,19.61,12,30.4,15.85,7.44,2.82,26.1,7.92,26.1,19.02.12,11.57-15.48,12.33-23.36,12.33-17.83-.24-36.11-4.77-51.52-14.09-1.28-1.1-2.92.24-2.75,1.76v38.05c-.06,1.73.9,3.43,2.4,4.23,15.73,7.38,33.64,10.04,50.83,9.87,33.02,0,71.55-15.9,70.75-55.66.58-31.94-28.72-47.83-54.61-56.72Z"/>
    </g>
  </g>
</svg>