<?xml version="1.0" encoding="UTF-8"?>
<svg id="Layer_2" data-name="Layer 2" xmlns="http://www.w3.org/2000/svg" xmlns:xlink="http://www.w3.org/1999/xlink" viewBox="0 0 812 812">
  <defs>
    <style>
      .cls-1 {
        fill: url(#linear-gradient-2);
      }

      .cls-2 {
        fill: url(#linear-gradient-3);
      }

      .cls-3 {
        fill: url(#linear-gradient);
      }
    </style>
    <linearGradient id="linear-gradient" x1="406" y1="0" x2="406" y2="812" gradientUnits="userSpaceOnUse">
      <stop offset="0" stop-color="#fed135"/>
      <stop offset="1" stop-color="#fd3f10"/>
    </linearGradient>
    <linearGradient id="linear-gradient-2" y1="370" x2="406" y2="442" xlink:href="#linear-gradient"/>
    <linearGradient id="linear-gradient-3" x1="406" y1="241.32" x2="406" y2="584.18" xlink:href="#linear-gradient"/>
  </defs>
  <g id="Layer_1-2" data-name="Layer 1">
    <g>
      <path class="cls-3" d="m406,0h0C181.77,0,0,181.77,0,406h0c0,224.23,181.77,406,406,406h0c224.23,0,406-181.77,406-406h0C812,181.77,630.23,0,406,0Zm256,585.2c0,42.42-34.38,76.8-76.8,76.8H226.8c-42.42,0-76.8-34.38-76.8-76.8V226.8c0-42.42,34.38-76.8,76.8-76.8h358.4c42.42,0,76.8,34.38,76.8,76.8v358.4Z"/>
      <circle class="cls-1" cx="406" cy="406" r="36"/>
      <path class="cls-2" d="m538.62,347.34c-6.87-2.66-14.17-5.1-21.83-7.29,5.82-27.48,6.17-51.4.33-68.72-4.34-12.86-12.16-22.08-22.63-26.67-20.79-9.11-49.79.82-81.67,27.95-2.27,1.93-4.54,3.94-6.81,6.01-2.32-2.12-4.64-4.18-6.97-6.15-31.88-27.11-60.88-36.99-81.64-27.83-10.45,4.61-18.25,13.84-22.57,26.71-5.82,17.32-5.45,41.24.37,68.7-7.69,2.2-15,4.64-21.89,7.31-38.26,14.85-59.32,35.67-59.31,58.61.02,22.93,21.09,43.73,59.34,58.57,5.61,2.18,11.52,4.2,17.67,6.07-9.09,33.7-10.79,63.23-3.92,83.6,4.34,12.86,12.16,22.08,22.63,26.67,5.03,2.21,10.54,3.3,16.47,3.3,18.52,0,41.02-10.67,65.17-31.22,4.9-4.17,9.79-8.67,14.66-13.48,4.87,4.81,9.77,9.32,14.67,13.49,31.88,27.11,60.87,36.99,81.64,27.83,10.45-4.61,18.25-13.85,22.58-26.71,6.84-20.36,5.13-49.83-3.93-83.47,6.17-1.87,12.09-3.9,17.72-6.08,38.26-14.85,59.32-35.67,59.31-58.61-.02-22.94-21.1-43.74-59.38-58.58Zm-114.13-61.01c25.97-22.1,48.85-31.28,62.77-25.17,5.78,2.53,10.08,7.89,12.8,15.93,4.81,14.27,4.36,34.72-.66,58.54-15.51-3.48-32.17-6.06-49.56-7.68-9.97-13.43-20.36-25.78-30.92-36.72,1.86-1.68,3.71-3.32,5.57-4.9Zm-18.44,190.62l-.1-9c-12.38,0-24.3-.48-35.71-1.37-6.19-9.42-12.14-19.26-17.8-29.43l-.05-.09c-6.01-10.83-11.48-21.69-16.34-32.41,2.71-5.38,5.57-10.77,8.55-16.16,8.48-15.28,17.66-29.82,27.27-43.3,11.11-.82,22.5-1.25,34.08-1.25h.05c11.81,0,23.21.43,34.13,1.25,9.57,13.42,18.7,27.9,27.15,43.1,3.03,5.45,5.92,10.9,8.66,16.35-4.87,10.72-10.33,21.59-16.34,32.42l-.05.09c-5.65,10.17-11.61,20.01-17.79,29.43-11.62.91-23.57,1.37-35.71,1.37v9Zm-79.93-51.23c3.3,6.67,6.82,13.37,10.54,20.07l.05.1c3.45,6.21,7.02,12.31,10.68,18.27-12.03-1.62-23.32-3.71-33.78-6.17,3.5-10.47,7.69-21.29,12.51-32.27Zm-9.2-72.62c10.01-2.24,20.55-4.08,31.49-5.51-6.81,10.28-13.35,21.04-19.53,32.17-.63,1.13-1.25,2.25-1.86,3.38-3.98-10.31-7.36-20.36-10.09-30.04Zm158.38,92.78l.05-.08c3.72-6.7,7.24-13.41,10.54-20.08,4.83,11,9.02,21.84,12.52,32.32-10.68,2.51-22,4.56-33.79,6.14,3.67-5.97,7.23-12.08,10.69-18.29Zm9.69-62.75c-.65-1.19-1.3-2.38-1.97-3.57-6.14-11.05-12.64-21.74-19.41-31.95,11.13,1.47,21.64,3.34,31.45,5.54-2.73,9.65-6.1,19.7-10.08,29.99Zm-78.97-79.36c6.7,6.95,13.35,14.51,19.86,22.59-6.56-.27-13.19-.4-19.87-.4h-.05c-6.66,0-13.27.14-19.8.4,6.51-8.08,13.16-15.64,19.86-22.59Zm-94.12-26.68c2.71-8.05,7-13.42,12.78-15.97,2.84-1.25,6.04-1.87,9.58-1.87,13.78,0,32.48,9.37,53.14,26.94,1.91,1.62,3.81,3.3,5.72,5.03-10.56,10.94-20.96,23.29-30.93,36.72-17.41,1.62-34.08,4.21-49.59,7.69-5.02-23.82-5.49-44.27-.69-58.55Zm-15.68,176.22c-40.17-12.23-64.2-30.35-64.21-47.35-.01-14.77,17.42-30.01,47.82-41.81,6.19-2.4,12.77-4.61,19.68-6.61,4.17,14.92,9.76,30.63,16.68,46.7-8.06,16.74-14.75,33.25-19.97,49.07Zm83.48,85.93c-25.95,22.08-48.82,31.25-62.74,25.15-5.78-2.53-10.08-7.89-12.8-15.93-5.78-17.12-3.96-43.13,4.21-73.18,16.09,3.83,33.5,6.68,51.74,8.47,10.67,15.57,21.94,29.95,33.48,42.72-4.61,4.57-9.25,8.84-13.89,12.78Zm26.32-25.86c-7.71-8.59-15.31-17.96-22.67-27.97,7.45.35,15,.53,22.61.53h.1c7.62,0,15.17-.18,22.62-.53-7.36,10-14.95,19.37-22.66,27.97Zm101.83,34.96c-2.71,8.05-7,13.43-12.78,15.98-13.9,6.13-36.76-3.01-62.72-25.08-4.64-3.94-9.28-8.22-13.9-12.79,11.54-12.76,22.81-27.14,33.47-42.71,18.23-1.78,35.64-4.63,51.72-8.46,8.15,29.99,9.96,55.95,4.21,73.07Zm24.34-100.6c-5.2,2.02-10.67,3.9-16.38,5.63-5.22-15.85-11.92-32.38-19.99-49.14,6.91-16.05,12.49-31.74,16.66-46.64,42.17,12.23,67.52,30.88,67.53,48.34.01,14.77-17.42,30.01-47.82,41.81Z"/>
    </g>
  </g>
</svg>