<?xml version="1.0" encoding="UTF-8"?>
<svg id="Layer_2" data-name="Layer 2" xmlns="http://www.w3.org/2000/svg" xmlns:xlink="http://www.w3.org/1999/xlink" viewBox="0 0 812 812">
  <defs>
    <style>
      .cls-1 {
        fill: url(#linear-gradient-2);
      }

      .cls-2 {
        fill: url(#linear-gradient-3);
      }

      .cls-3 {
        fill: url(#linear-gradient);
      }
    </style>
    <linearGradient id="linear-gradient" x1="406" y1="0" x2="406" y2="812" gradientUnits="userSpaceOnUse">
      <stop offset="0" stop-color="#fed135"/>
      <stop offset="1" stop-color="#fd3f10"/>
    </linearGradient>
    <linearGradient id="linear-gradient-2" x1="351.34" y1="406" x2="351.34" y2="537.19" xlink:href="#linear-gradient"/>
    <linearGradient id="linear-gradient-3" x1="460.66" y1="274.81" x2="460.66" y2="406" xlink:href="#linear-gradient"/>
  </defs>
  <g id="Layer_1-2" data-name="Layer 1">
    <g>
      <path class="cls-3" d="m406,0h0C181.77,0,0,181.77,0,406h0c0,224.23,181.77,406,406,406h0c224.23,0,406-181.77,406-406h0C812,181.77,630.23,0,406,0Zm256,585.2c0,42.42-34.38,76.8-76.8,76.8H226.8c-42.42,0-76.8-34.38-76.8-76.8V226.8c0-42.42,34.38-76.8,76.8-76.8h358.4c42.42,0,76.8,34.38,76.8,76.8v358.4Z"/>
      <path class="cls-1" d="m438.8,482.52c-43.73-10.93-54.66-76.52-142.12-76.52-58.3,0-94.75,29.15-109.32,87.46,21.86-29.15,47.37-40.08,76.53-32.8,43.73,10.93,54.66,76.52,142.12,76.52,58.3,0,94.75-29.15,109.32-87.46-21.86,29.15-47.37,40.08-76.52,32.8Z"/>
      <path class="cls-2" d="m548.12,351.34c-43.73-10.93-54.66-76.52-142.12-76.52-58.3,0-94.75,29.15-109.32,87.46,21.86-29.15,47.37-40.08,76.52-32.8,43.73,10.93,54.66,76.53,142.12,76.53,58.3,0,94.75-29.15,109.32-87.46-21.86,29.15-47.37,40.08-76.53,32.8Z"/>
    </g>
  </g>
</svg>