<?xml version="1.0" encoding="UTF-8"?>
<svg id="Layer_2" data-name="Layer 2" xmlns="http://www.w3.org/2000/svg" xmlns:xlink="http://www.w3.org/1999/xlink" viewBox="0 0 812 812">
  <defs>
    <style>
      .cls-1 {
        fill: url(#linear-gradient-2);
      }

      .cls-2 {
        fill: url(#linear-gradient-3);
      }

      .cls-3 {
        fill: url(#linear-gradient);
      }
    </style>
    <linearGradient id="linear-gradient" x1="406" y1="0" x2="406" y2="812" gradientUnits="userSpaceOnUse">
      <stop offset="0" stop-color="#fed135"/>
      <stop offset="1" stop-color="#fd3f10"/>
    </linearGradient>
    <linearGradient id="linear-gradient-2" x1="357.5" y1="393" x2="357.5" y2="617" xlink:href="#linear-gradient"/>
    <linearGradient id="linear-gradient-3" x1="542.4" y1="387.44" x2="542.4" y2="619.5" xlink:href="#linear-gradient"/>
  </defs>
  <g id="Layer_1-2" data-name="Layer 1">
    <g>
      <path class="cls-3" d="m406,0h0C181.77,0,0,181.77,0,406h0c0,224.23,181.77,406,406,406h0c224.23,0,406-181.77,406-406h0C812,181.77,630.23,0,406,0Zm256,585.2c0,42.42-34.38,76.8-76.8,76.8H226.8c-42.42,0-76.8-34.38-76.8-76.8V226.8c0-42.42,34.38-76.8,76.8-76.8h358.4c42.42,0,76.8,34.38,76.8,76.8v358.4Z"/>
      <polygon class="cls-1" points="268 434 332 434 332 617 383 617 383 434 447 434 447 393 268 393 268 434"/>
      <path class="cls-2" d="m603,510.1c-5.1-5.3-11-10-18-14s-15-8.2-24-12c-6.6-2.7-12-5.3-18-7.9-5.2-2.6-9.7-5.2-13-7.8-3.7-2.7-6.5-5.5-8.5-8.4-2-3-3-6.3-3-10,0-3.4.89-6.5,2.7-9.3,1.81-2.8,4.3-5.1,7.5-7.1s7.2-3.5,12-4.6c4.7-1.1,9.9-1.6,16-1.6,4.2,0,8.6.31,13,.94,4.6.63,9.3,1.6,14,2.9s9.3,2.9,14,4.9c4.4,2,8.5,4.3,12,6.9v-47c-7.6-2.9-16-5.1-25-6.5-9-1.4-19-2.1-31-2.1s-23,1.3-34,3.8-20,6.5-28,12c-8.1,5.4-14,12-19,21-4.7,8.4-7,18-7,30,0,15,4.3,28,13,38,8.6,11,22,19,39,27,6.9,2.8,13,5.6,19,8.3,6,2.7,11,5.5,15,8.4,4.3,2.9,7.7,6.1,10,9.5,2.5,3.4,3.8,7.4,3.8,12,0,3.2-.78,6.2-2.3,9s-3.9,5.2-7.1,7.2-7.1,3.6-12,4.8c-4.7,1.1-10,1.7-17,1.7-11,0-22-1.9-32-5.7-11-3.8-21-9.5-28.1-15.44v48c8.1,4.2,18,7.3,29,9.4,11,2.1,23,3.1,35,3.1s23-1.1,34-3.4,20-6.1,28-11c8.1-5.3,15-12,19-21s7.1-19,7.1-32c0-9.1-1.4-17-4.1-24-2.7-7-6.6-13-12-18Z"/>
    </g>
  </g>
</svg>